<svg width="170" height="40" viewBox="0 0 170 40" fill="none" xmlns="http://www.w3.org/2000/svg">
<path d="M47.104 29.1842C45.5139 29.0873 44.7188 28.6089 44.7188 27.7492L47.6761 16.6862C47.8441 16.0527 48.0768 15.597 48.3742 15.3191C48.6327 15.0735 49.0949 14.8472 49.7607 14.6404C50.2649 14.4788 50.824 14.3947 51.4381 14.3883C52.1168 14.3753 52.6727 14.4206 53.1058 14.524C54.4826 14.8408 55.2615 15.3643 55.4425 16.0948L58.3222 27.7492C58.3222 28.1888 58.0378 28.5572 57.4689 28.8546C57.0488 29.0743 56.4864 29.1842 55.7818 29.1842C53.9396 29.1842 52.9539 28.6639 52.8246 27.6232L52.7082 26.6924C52.2622 26.6277 51.8647 26.5954 51.5156 26.5954C51.0632 26.5954 50.6462 26.6277 50.2649 26.6924L50.0225 27.5068C49.8286 28.1597 49.5441 28.6089 49.1692 28.8546C48.8202 29.0808 48.2901 29.1971 47.5791 29.2036C47.4951 29.2036 47.3367 29.1971 47.104 29.1842ZM50.7594 23.58C51.0438 23.6576 51.3217 23.6963 51.5932 23.6963C51.8712 23.6963 52.1426 23.6576 52.4077 23.58L51.5156 19.0714L50.7594 23.58ZM61.1631 29.223C59.56 29.0614 58.7585 28.6606 58.7585 28.0207V15.7554C58.7585 15.3352 59.114 14.9636 59.8251 14.6404C60.1677 14.4852 60.6589 14.4077 61.2988 14.4077C61.4992 14.4077 61.7578 14.4206 62.0745 14.4465C62.7144 14.4982 63.1734 14.5887 63.4513 14.7179C63.9103 14.9312 64.1397 15.2965 64.1397 15.8136V27.9431C64.1397 28.3698 63.7228 28.7285 62.889 29.0194C62.6369 29.1034 62.3331 29.1713 61.9776 29.223C61.8289 29.2424 61.6964 29.2553 61.58 29.2618C61.5671 29.2618 61.4281 29.2489 61.1631 29.223ZM67.2174 32.2384C66.1185 31.9282 65.5691 31.5791 65.5691 31.1913V18.7708C65.5691 18.3765 65.9601 18.021 66.7423 17.7043C67.1236 17.5491 67.5987 17.4748 68.1676 17.4813C68.8592 17.4877 69.4442 17.5976 69.9225 17.8109C70.5689 18.1018 70.8986 18.5478 70.9115 19.149C71.4351 18.2957 72.2689 17.7721 73.413 17.5782C73.7104 17.5265 74.0077 17.5007 74.3051 17.5007C76.2378 17.5007 77.3948 18.7191 77.7762 21.156C77.8602 21.6925 77.9022 22.4068 77.9022 23.2988C77.9022 25.0182 77.7019 26.3401 77.3011 27.2644C76.7193 28.6089 75.6883 29.2876 74.2081 29.3006C74.0982 29.3006 73.8978 29.2876 73.607 29.2618C72.9218 29.1972 72.2075 28.9386 71.4642 28.4861C71.2961 28.3827 71.1442 28.276 71.0085 28.1662V31.2494C71.0085 31.5726 70.6465 31.8765 69.9225 32.1609C69.5218 32.316 68.9465 32.3871 68.1966 32.3742C67.8411 32.3677 67.5147 32.3225 67.2174 32.2384ZM70.9503 24.1133C70.9503 24.973 71.2476 25.3964 71.8423 25.3834C72.437 25.3705 72.7343 24.8017 72.7343 23.677C72.7343 23.5024 72.7085 23.1178 72.6568 22.5231C72.5857 21.7216 72.3142 21.3176 71.8423 21.3112C71.448 21.3047 71.1862 21.4921 71.0569 21.8735C70.9858 22.0804 70.9503 22.4747 70.9503 23.0564V24.1133ZM79.1902 28.0886V15.4936C79.1902 15.1704 79.5392 14.8795 80.2373 14.621C80.6704 14.4594 81.2004 14.3818 81.8274 14.3883C82.5837 14.3947 83.1332 14.4723 83.4757 14.621C84.2062 14.9377 84.5714 15.248 84.5714 15.5518V19.1296C84.6102 19.0843 84.6942 18.9971 84.8235 18.8678C85.2048 18.4929 85.6282 18.1826 86.0936 17.937C86.7465 17.5944 87.3767 17.4231 87.9843 17.4231C88.8053 17.4231 89.526 17.6784 90.1465 18.1891C90.7735 18.6933 91.1711 19.3493 91.3391 20.1573C91.3973 20.4288 91.4231 20.6551 91.4167 20.8361L91.3973 21.476V27.9819C91.3973 28.6865 90.5828 29.0937 88.9539 29.2036C88.6243 29.223 88.2881 29.2101 87.9456 29.1648C87.5254 29.1067 87.1537 28.9968 86.8305 28.8352C86.3263 28.5831 86.0742 28.3342 86.0742 28.0886V21.825C86.0742 21.4695 85.8318 21.2918 85.3471 21.2918C84.8816 21.2918 84.6489 21.4631 84.6489 21.8056V27.9819C84.6489 28.4344 84.0866 28.7996 82.9619 29.0776C82.839 29.1099 82.713 29.139 82.5837 29.1648C82.435 29.1778 82.1894 29.1907 81.8468 29.2036C81.2521 29.2165 80.7027 29.1067 80.1985 28.874C79.5263 28.5637 79.1902 28.3019 79.1902 28.0886ZM104.15 20.3803C104.247 20.7294 104.295 21.2465 104.295 21.9317L104.315 27.5844C104.315 28.5281 103.791 29.0679 102.744 29.2036C102.382 29.2489 102.004 29.2747 101.61 29.2812C101.021 29.2876 100.566 29.1842 100.242 28.9709C99.9258 28.7576 99.6478 28.3762 99.4086 27.8268C99.3828 27.7298 99.3408 27.6167 99.2826 27.4874C98.8495 28.3989 98.0221 28.9774 96.8004 29.223C96.6065 29.2618 96.3965 29.2812 96.1702 29.2812C96.028 29.2812 95.8696 29.2683 95.6951 29.2424C93.6719 28.9386 92.6635 27.6652 92.67 25.4222C92.67 24.2328 93.1192 23.3505 94.0177 22.7752C94.7675 22.2904 95.7759 22.048 97.0428 22.048H97.4598C98.0221 22.048 98.3776 22.0351 98.5263 22.0093C98.9659 21.9317 99.2341 21.741 99.3311 21.4372C99.3311 20.9783 99.1856 20.6906 98.8948 20.5743C98.7655 20.5226 98.5974 20.4902 98.3906 20.4773C98.1385 20.4902 97.9381 20.5322 97.7894 20.6033C97.6731 20.6615 97.337 20.8716 96.7811 21.2336C96.4966 21.421 96.1411 21.56 95.7145 21.6505C95.4689 21.7022 95.2685 21.7281 95.1134 21.7281C94.5898 21.7281 94.1761 21.5535 93.8723 21.2045C93.5685 20.8554 93.4198 20.4159 93.4263 19.8859C93.4327 19.2782 93.8626 18.7159 94.7158 18.1988C95.4204 17.7721 96.6582 17.5201 98.4294 17.4425L98.9335 17.4231C99.1727 17.4231 99.3311 17.4296 99.4086 17.4425C101.29 17.5201 102.602 17.9758 103.345 18.8096C103.707 19.2168 103.975 19.7404 104.15 20.3803ZM99.3699 23.6963C99.2858 23.7222 99.1469 23.7674 98.9529 23.8321C98.0997 24.1747 97.602 24.5334 97.4598 24.9083C97.421 25.0118 97.4016 25.1055 97.4016 25.1895C97.4016 25.3899 97.4792 25.5644 97.6343 25.7131C97.7959 25.8553 97.9769 25.9296 98.1773 25.9361C98.9659 25.949 99.3699 25.2606 99.3893 23.8709C99.3893 23.8127 99.3828 23.7545 99.3699 23.6963ZM107.76 24.6465C107.734 24.3686 107.721 24.1456 107.721 23.9775V20.0022C107.721 19.6855 107.741 19.3946 107.78 19.1296C108.051 17.2809 108.736 16.0043 109.835 15.2997C110.378 14.9506 111.109 14.6792 112.026 14.4852C112.543 14.3753 113.099 14.3204 113.694 14.3204C113.991 14.3204 114.244 14.3269 114.45 14.3398C115.685 14.4174 116.551 14.5499 117.049 14.7373C117.463 14.8925 117.854 15.109 118.222 15.387C119.25 16.1562 119.812 17.2777 119.909 18.7514C119.922 18.9518 119.929 19.1296 119.929 19.2847V22.9982C119.929 23.0758 119.916 23.3344 119.89 23.7739C119.799 25.3382 119.505 26.5502 119.007 27.4099C118.374 28.5023 117.366 29.1584 115.982 29.3781C115.859 29.3975 115.633 29.4169 115.304 29.4363C115.62 29.8371 116.196 30.0956 117.029 30.212C117.249 30.2443 117.456 30.4091 117.65 30.7065C117.695 30.8034 117.734 30.9166 117.766 31.0458C117.766 32.0284 117.424 32.5196 116.739 32.5196H115.944L112.802 32.5002C111.891 32.4938 111.435 32.0833 111.435 31.2688V29.3587C111.338 29.3329 111.238 29.3006 111.134 29.2618C109.635 28.7059 108.672 27.9108 108.245 26.8766C108.006 26.3013 107.844 25.558 107.76 24.6465ZM112.86 25.4416C112.86 25.9135 113.213 26.1591 113.917 26.1785C114.486 26.1397 114.77 25.8941 114.77 25.4416V18.6545C114.77 18.1955 114.576 17.8788 114.189 17.7043C114.059 17.6202 113.907 17.5782 113.733 17.5782C113.351 17.5718 113.086 17.7592 112.938 18.1406C112.886 18.2763 112.86 18.4153 112.86 18.5575V25.4416ZM121.364 25.8585L121.383 25.2089V18.7126C121.383 18.3054 121.82 17.9596 122.692 17.6752C123.028 17.5653 123.407 17.5071 123.827 17.5007C124.279 17.4942 124.615 17.5071 124.835 17.5394C125.346 17.617 125.717 17.7172 125.95 17.84C126.467 18.118 126.726 18.3765 126.726 18.6157V24.8502C126.726 25.2186 126.962 25.4028 127.434 25.4028C127.899 25.4028 128.132 25.2315 128.132 24.8889V18.7126C128.132 18.2602 128.694 17.8885 129.819 17.5976C130.207 17.5394 130.598 17.5071 130.992 17.5007C131.58 17.4942 132.11 17.6009 132.582 17.8206C133.254 18.1374 133.591 18.4024 133.591 18.6157V28.1855C133.591 28.5023 133.241 28.7996 132.543 29.0776C132.136 29.2392 131.664 29.32 131.128 29.32C131.057 29.32 130.821 29.307 130.42 29.2812C129.929 29.2489 129.551 29.181 129.286 29.0776C128.568 28.7932 128.209 28.4829 128.209 28.1468V27.5456C128.177 27.5909 128.093 27.6781 127.957 27.8074C126.949 28.777 125.902 29.2618 124.816 29.2618C123.71 29.2618 122.818 28.8319 122.14 27.9722C121.81 27.5585 121.584 27.0802 121.461 26.5372C121.429 26.408 121.396 26.1817 121.364 25.8585ZM147.196 22.3486C147.222 22.5813 147.235 22.7526 147.235 22.8625C147.235 23.7157 146.925 24.1456 146.304 24.152L139.886 24.2102V24.7726C139.886 25.2057 139.979 25.5418 140.167 25.781C140.406 26.0331 140.658 26.1591 140.923 26.1591C141.363 26.1591 141.938 25.8068 142.649 25.1022C142.875 24.876 143.48 24.7661 144.462 24.7726C144.824 24.7726 145.167 24.8243 145.49 24.9277C146.388 25.2121 146.838 25.5967 146.838 26.0815C146.838 26.4112 146.673 26.841 146.343 27.3711C145.884 28.108 144.837 28.6639 143.202 29.0388C142.963 29.097 142.714 29.1454 142.455 29.1842C142.119 29.2359 141.641 29.2683 141.02 29.2812C140.787 29.2876 140.509 29.2747 140.186 29.2424C139.074 29.139 138.166 28.9418 137.462 28.6509C136.234 28.1468 135.445 27.2612 135.096 25.9943C134.941 25.4319 134.863 24.6465 134.863 23.6382C134.863 23.3925 134.883 23.0952 134.921 22.7461C135.18 20.4062 135.952 18.9098 137.239 18.2569C137.943 17.9014 138.906 17.6558 140.128 17.5201C140.477 17.4813 140.836 17.4619 141.204 17.4619C141.805 17.4619 142.381 17.5136 142.93 17.617C144.029 17.8239 144.856 18.1147 145.412 18.4896C146.207 19.0261 146.725 19.763 146.964 20.7003C146.99 20.8167 147.028 20.9944 147.08 21.2336V21.3112L147.196 22.3486ZM140.031 21.8056L142.019 21.7862V21.4081C142.019 21.072 141.805 20.8296 141.379 20.6809C141.282 20.6292 141.162 20.6001 141.02 20.5937C140.891 20.5872 140.765 20.6163 140.642 20.6809C140.235 20.8102 140.031 21.0332 140.031 21.3499V21.8056ZM148.45 27.3517C148.281 27.0414 148.197 26.7764 148.197 26.5566C148.197 25.9813 148.698 25.5903 149.7 25.3834C150.011 25.3188 150.343 25.2865 150.699 25.2865C151.507 25.2865 152.16 25.4642 152.658 25.8197C152.916 26.0007 153.149 26.2464 153.356 26.5566C153.459 26.7118 153.643 26.7893 153.908 26.7893C154.038 26.7893 154.164 26.7699 154.286 26.7312C154.616 26.6277 154.784 26.3983 154.791 26.0428C154.791 26.004 154.774 25.9232 154.742 25.8004C154.632 25.3802 154.025 25.1087 152.919 24.9859L152.745 24.9665L151.746 24.7726C151.087 24.6433 150.557 24.4752 150.156 24.2684C149.471 23.9129 148.98 23.525 148.682 23.1049C148.359 22.6395 148.197 22.0416 148.197 21.3112C148.197 19.5917 149.196 18.4282 151.193 17.8206C151.639 17.6849 152.499 17.5718 153.773 17.4813C153.954 17.4683 154.099 17.4619 154.209 17.4619C154.261 17.4619 154.406 17.4683 154.645 17.4813C155.654 17.5394 156.429 17.6461 156.972 17.8012C158.078 18.1244 158.844 18.6318 159.27 19.3235C159.399 19.5368 159.467 19.7566 159.474 19.9828C159.487 20.6357 159.057 21.0267 158.184 21.156C158.152 21.1625 158.052 21.1722 157.884 21.1851L157.583 21.2142C157.447 21.2271 157.282 21.2336 157.089 21.2336C156.3 21.2336 155.631 20.9944 155.081 20.5161L154.49 20.0022C154.387 19.9117 154.274 19.8665 154.151 19.8665C154.021 19.8665 153.87 19.9052 153.695 19.9828C153.417 20.1056 153.278 20.3189 153.278 20.6227C153.278 21.1011 153.734 21.4243 154.645 21.5923L155.479 21.7475L155.799 21.7862L156.555 21.8929L156.933 21.9317C157.017 21.9382 157.169 21.9705 157.389 22.0286C159.063 22.4553 159.904 23.4281 159.91 24.9471C159.91 25.4061 159.81 25.9426 159.609 26.5566C159.312 27.468 158.611 28.1565 157.505 28.6219C157.118 28.7835 156.442 28.9354 155.479 29.0776C154.943 29.1551 154.435 29.1971 153.957 29.2036C153.866 29.2036 153.672 29.1971 153.375 29.1842C152.457 29.139 151.562 28.9903 150.689 28.7382C149.513 28.3956 148.766 27.9335 148.45 27.3517ZM161.159 17.7915C161.198 17.7721 161.292 17.7334 161.441 17.6752V16.5699C161.441 16.1303 161.844 15.7651 162.652 15.4742C162.924 15.3773 163.312 15.3191 163.816 15.2997L164.301 15.2803C166.007 15.2803 166.861 15.7683 166.861 16.7444V17.6946H167.888C168.283 17.6946 168.593 17.8529 168.819 18.1697C169.019 18.4476 169.12 18.7934 169.12 19.2071C169.12 19.4011 169.1 19.5982 169.061 19.7986C168.906 20.5807 168.577 20.9718 168.072 20.9718H166.899V24.8889C166.899 25.322 166.954 25.6226 167.064 25.7907C167.193 25.991 167.462 26.1268 167.869 26.1979C168.69 26.3401 169.1 26.7053 169.1 27.2935C169.1 27.5392 169.049 27.8559 168.945 28.2437C168.809 28.7479 168.564 29 168.208 29H163.525C162.989 29 162.471 28.735 161.974 28.2049C161.644 27.8494 161.479 27.3582 161.479 26.7312V20.933C160.658 20.8296 160.238 20.2155 160.219 19.0908C160.296 18.4961 160.61 18.063 161.159 17.7915Z" fill="white"/>
<g clip-path="url(#clip0_96_1375)">
<path d="M4.49937 18.3959C10.3555 13.7901 12.1758 -5.1452 27.8688 1.33599C36.1841 4.77408 35.267 14.8823 33.4054 21.9954C33.4054 21.9954 35.3735 21.9748 36.2837 25.3855C37.1939 28.7961 35.9436 32.0933 34.1233 32.0933C32.3029 32.0933 33.5016 25.0935 31.5404 27.7382C31.1145 28.8338 30.8191 29.4761 30.8191 29.4761C25.6534 45.3374 21.0475 39.1996 20.024 36.8091C19.0005 34.422 15.2464 38.8562 9.10868 35.2738C5.74272 33.3092 7.23679 28.93 4.64363 29.0331C-2.15356 29.3113 -0.862125 22.6103 4.49937 18.3959Z" fill="#FAFAFA"/>
<path d="M16.737 16.232C16.737 16.232 19.1104 15.947 19.9072 19.701C20.7041 23.4551 18.657 26.4124 17.4617 26.1822C16.2665 25.9555 16.5172 23.2868 16.2665 21.992C15.8818 19.9999 13.797 19.8762 13.5359 20.6112C13.5359 20.6112 15.1983 20.7417 15.5418 21.992C15.8818 23.2422 14.9682 26.6528 16.8126 27.0443C18.657 27.4359 21.5353 25.485 20.8174 20.1991C20.2473 16.0157 17.0771 15.6653 16.737 16.232Z" fill="#11141E"/>
<path d="M28.2191 13.6526C28.2191 13.6526 22.2565 11.2312 21.8512 12.9485C21.4494 14.6658 22.7202 17.0461 25.5916 16.943C28.463 16.8434 30.0601 14.3086 28.2191 13.6526Z" fill="#1D2029"/>
<path d="M19.6806 9.16366C19.6806 9.16366 20.0549 7.25055 21.7276 8.07487C23.4003 8.89919 21.8238 12.0934 20.5014 11.3344C19.1791 10.5753 19.6806 9.16366 19.6806 9.16366Z" fill="#1D2029"/>
<path d="M29.4247 11.0597C29.4247 11.0597 29.799 9.14655 31.4717 9.97087C33.1444 10.7952 31.5679 13.9894 30.2455 13.2304C28.9232 12.4713 29.4247 11.0597 29.4247 11.0597Z" fill="#1D2029"/>
</g>
<defs>
<clipPath id="clip0_96_1375">
<rect width="36.586" height="40" fill="white" transform="matrix(-1 0 0 1 36.5859 0)"/>
</clipPath>
</defs>
</svg>
