<svg width="20" height="20" viewBox="0 0 20 20" fill="none" xmlns="http://www.w3.org/2000/svg">
<rect width="20" height="20" rx="10" fill="#FAFAFA"/>
<path d="M13.8709 11.8911C13.9484 11.9373 14.0442 11.9913 14.1526 12.0525C14.6279 12.3206 15.3462 12.7259 15.8383 13.2076C16.1461 13.5088 16.4385 13.9058 16.4917 14.3922C16.5482 14.9094 16.3226 15.3948 15.8699 15.8261C15.0889 16.5701 14.1517 17.1663 12.9395 17.1663H7.0607C5.84849 17.1663 4.9113 16.5701 4.13034 15.8261C3.67766 15.3948 3.45201 14.9094 3.50855 14.3922C3.56172 13.9058 3.85415 13.5088 4.16193 13.2076C4.65404 12.7259 5.37238 12.3206 5.84759 12.0525L5.8476 12.0525C5.95604 11.9913 6.05182 11.9373 6.12936 11.8911C8.49873 10.4803 11.5015 10.4803 13.8709 11.8911Z" fill="#18181B"/>
<path d="M6.5 6.33301C6.5 4.40001 8.067 2.83301 10 2.83301C11.933 2.83301 13.5 4.40001 13.5 6.33301C13.5 8.266 11.933 9.83301 10 9.83301C8.067 9.83301 6.5 8.266 6.5 6.33301Z" fill="#18181B"/>
</svg>
