<svg width="22" height="22" viewBox="0 0 22 22" fill="none" xmlns="http://www.w3.org/2000/svg">
<g clip-path="url(#clip0_591_765)">
<path d="M6.26574 6.45889C6.30666 6.49614 6.34962 6.53108 6.39443 6.56354L3.64096 11.6123L9.95118 17.9225L14.9999 15.169C15.0324 15.2138 15.0673 15.2568 15.1046 15.2977C15.3493 15.5425 15.6611 15.7091 16.0006 15.7767C16.3401 15.8442 16.6919 15.8095 17.0117 15.6771C17.3315 15.5446 17.6048 15.3203 17.7971 15.0325C17.9894 14.7448 18.092 14.4064 18.092 14.0603C18.092 13.7142 17.9894 13.3758 17.7971 13.088C17.6048 12.8003 17.3315 12.576 17.0117 12.4435C16.6919 12.311 16.3401 12.2764 16.0006 12.3439C15.6611 12.4114 15.3493 12.5781 15.1046 12.8229C14.9015 13.0287 14.7534 13.2823 14.6739 13.5604L11.1837 13.5604L13.6112 9.20812C13.9829 9.3043 14.3759 9.27557 14.7297 9.12636C15.0834 8.97714 15.3783 8.71573 15.5688 8.3824C15.7594 8.04907 15.835 7.66232 15.7841 7.28177C15.7331 6.90122 15.5585 6.54797 15.287 6.27648C15.0155 6.00499 14.6622 5.83032 14.2817 5.77939C13.9011 5.72845 13.5144 5.80409 13.1811 5.99463C12.8477 6.18517 12.5863 6.48005 12.4371 6.83381C12.2879 7.18758 12.2592 7.5806 12.3553 7.9523L8.0031 10.3798L8.0031 6.88952C8.28113 6.81002 8.53473 6.66195 8.74061 6.45889C8.98535 6.21415 9.15203 5.90233 9.21955 5.56286C9.28707 5.2234 9.25242 4.87153 9.11996 4.55176C8.98751 4.23199 8.76321 3.95868 8.47542 3.76638C8.18764 3.57409 7.84929 3.47145 7.50318 3.47146C7.15706 3.47146 6.81871 3.57409 6.53093 3.76638C6.24314 3.95868 6.01884 4.23199 5.88639 4.55176C5.75393 4.87153 5.71928 5.2234 5.7868 5.56286C5.85433 5.90233 6.021 6.21415 6.26574 6.45889Z" fill="#FACC15"/>
</g>
<defs>
<clipPath id="clip0_591_765">
<rect width="17" height="13" fill="white" transform="translate(9.19238) rotate(45)"/>
</clipPath>
</defs>
</svg>
