<svg width="17" height="13" viewBox="0 0 17 13" fill="none" xmlns="http://www.w3.org/2000/svg">
<g id="chess-king 1" clip-path="url(#clip0_1549_3203)">
<path id="Vector" d="M2.49805 6.63638C2.55332 6.63379 2.60841 6.62811 2.66305 6.61938L4.28605 12.1364H13.21L14.833 6.61938C14.8877 6.62811 14.9428 6.63379 14.998 6.63638C15.3442 6.63638 15.6825 6.53375 15.9703 6.34145C16.2581 6.14916 16.4824 5.87585 16.6148 5.55608C16.7473 5.23631 16.7819 4.88444 16.7144 4.54497C16.6469 4.20551 16.4802 3.89369 16.2355 3.64895C15.9907 3.4042 15.6789 3.23753 15.3395 3.17001C15 3.10248 14.6481 3.13714 14.3284 3.26959C14.0086 3.40205 13.7353 3.62635 13.543 3.91413C13.3507 4.20192 13.248 4.54026 13.248 4.88638C13.25 5.17555 13.3247 5.45957 13.465 5.71238L10.997 8.18038L9.63605 3.38638C9.96689 3.19156 10.2245 2.89333 10.3691 2.53767C10.5138 2.18201 10.5374 1.78865 10.4365 1.41822C10.3355 1.04779 10.1155 0.720839 9.81039 0.487763C9.50529 0.254686 9.13199 0.128418 8.74805 0.128418C8.3641 0.128418 7.99081 0.254686 7.6857 0.487763C7.3806 0.720839 7.16061 1.04779 7.05964 1.41822C6.95867 1.78865 6.98233 2.18201 7.12697 2.53767C7.27161 2.89333 7.5292 3.19156 7.86005 3.38638L6.49905 8.18038L4.03105 5.71238C4.17143 5.45957 4.24605 5.17555 4.24805 4.88638C4.24805 4.54026 4.14541 4.20192 3.95312 3.91413C3.76083 3.62635 3.48751 3.40205 3.16774 3.26959C2.84797 3.13714 2.49611 3.10248 2.15664 3.17001C1.81717 3.23753 1.50535 3.4042 1.26061 3.64895C1.01587 3.89369 0.849198 4.20551 0.781673 4.54497C0.714149 4.88444 0.748805 5.23631 0.881258 5.55608C1.01371 5.87585 1.23801 6.14916 1.5258 6.34145C1.81359 6.53375 2.15193 6.63638 2.49805 6.63638Z" fill="#FACC15"/>
</g>
<defs>
<clipPath id="clip0_1549_3203">
<rect width="17" height="13" fill="white"/>
</clipPath>
</defs>
</svg>
