<svg width="44" height="44" viewBox="0 0 44 44" fill="none" xmlns="http://www.w3.org/2000/svg">
<path d="M16.5 23.833C15.29 24.438 14.2817 25.3363 13.53 26.4547C13.1083 27.0963 13.1083 27.903 13.53 28.5447C14.2817 29.663 15.29 30.5613 16.5 31.1663" stroke="#E25148" stroke-width="2" stroke-linecap="round" stroke-linejoin="round"/>
<path d="M27.885 23.833C29.095 24.438 30.1033 25.3363 30.855 26.4547C31.2767 27.0963 31.2767 27.903 30.855 28.5447C30.1033 29.663 29.095 30.5613 27.885 31.1663" stroke="#E25148" stroke-width="2" stroke-linecap="round" stroke-linejoin="round"/>
<path d="M16.5 40.3337H27.5C36.6667 40.3337 40.3334 36.667 40.3334 27.5003V16.5003C40.3334 7.33366 36.6667 3.66699 27.5 3.66699H16.5C7.33335 3.66699 3.66669 7.33366 3.66669 16.5003V27.5003C3.66669 36.667 7.33335 40.3337 16.5 40.3337Z" stroke="#24B592" stroke-width="2" stroke-linecap="round" stroke-linejoin="round"/>
<path d="M4.08832 14.6853L39.325 14.667" stroke="#24B592" stroke-width="2" stroke-linecap="round" stroke-linejoin="round"/>
</svg>
