<svg width="18" height="18" viewBox="0 0 18 18" fill="none" xmlns="http://www.w3.org/2000/svg">
<path d="M16.4399 12.562C16.1924 14.557 14.5574 16.192 12.5624 16.4395C11.3549 16.5895 10.2299 16.2595 9.3524 15.6145C8.8499 15.247 8.9699 14.467 9.5699 14.287C10.6842 13.9465 11.6978 13.3376 12.5216 12.5137C13.3455 11.6898 13.9544 10.6762 14.2949 9.56196C14.4749 8.96946 15.2549 8.84946 15.6224 9.34446C16.2936 10.2742 16.5859 11.4246 16.4399 12.562Z" fill="#11141E"/>
<path d="M7.4925 1.5C4.185 1.5 1.5 4.185 1.5 7.4925C1.5 10.8 4.185 13.485 7.4925 13.485C10.8 13.485 13.485 10.8 13.485 7.4925C13.4775 4.185 10.8 1.5 7.4925 1.5ZM6.7875 6.6525L8.595 7.2825C9.2475 7.515 9.5625 7.9725 9.5625 8.6775C9.5625 9.4875 8.9175 10.155 8.13 10.155H8.0625V10.1925C8.0625 10.5 7.8075 10.755 7.5 10.755C7.1925 10.755 6.9375 10.5 6.9375 10.1925V10.1475C6.105 10.11 5.4375 9.4125 5.4375 8.5425C5.4375 8.235 5.6925 7.98 6 7.98C6.3075 7.98 6.5625 8.235 6.5625 8.5425C6.5625 8.8125 6.7575 9.03 6.9975 9.03H8.1225C8.295 9.03 8.43 8.8725 8.43 8.6775C8.43 8.415 8.385 8.4 8.2125 8.34L6.405 7.71C5.76 7.485 5.4375 7.0275 5.4375 6.315C5.4375 5.505 6.0825 4.8375 6.87 4.8375H6.9375V4.8075C6.9375 4.5 7.1925 4.245 7.5 4.245C7.8075 4.245 8.0625 4.5 8.0625 4.8075V4.8525C8.895 4.89 9.5625 5.5875 9.5625 6.4575C9.5625 6.765 9.3075 7.02 9 7.02C8.6925 7.02 8.4375 6.765 8.4375 6.4575C8.4375 6.1875 8.2425 5.97 8.0025 5.97H6.8775C6.705 5.97 6.57 6.1275 6.57 6.3225C6.5625 6.5775 6.6075 6.5925 6.7875 6.6525Z" fill="#11141E"/>
<rect x="5" y="4" width="5" height="7" fill="#11141E"/>
</svg>
