<svg width="18" height="14" viewBox="0 0 18 14" fill="none" xmlns="http://www.w3.org/2000/svg">
<path d="M17.3334 1.75809V9.74142C17.3334 12.0414 15.4668 13.9081 13.1668 13.9081H4.83343C4.4501 13.9081 4.08343 13.8581 3.7251 13.7581C3.20843 13.6164 3.04177 12.9581 3.4251 12.5748L12.2834 3.71642C12.4668 3.53309 12.7418 3.49142 13.0001 3.54142C13.2668 3.59142 13.5584 3.51642 13.7668 3.31642L15.9084 1.16642C16.6918 0.383086 17.3334 0.641419 17.3334 1.75809Z" fill="white"/>
<path d="M11.2001 3.13311L2.47508 11.8581C2.07508 12.2581 1.40841 12.1581 1.14175 11.6581C0.833415 11.0914 0.666748 10.4331 0.666748 9.74144V1.75811C0.666748 0.641439 1.30841 0.383105 2.09175 1.16644L4.24175 3.32477C4.56675 3.64144 5.10008 3.64144 5.42508 3.32477L8.40841 0.333105C8.73341 0.00810546 9.26675 0.00810546 9.59175 0.333105L11.2084 1.94977C11.5251 2.27477 11.5251 2.80811 11.2001 3.13311Z" fill="white"/>
</svg>
