<svg width="16" height="16" viewBox="0 0 16 16" fill="none" xmlns="http://www.w3.org/2000/svg">
<g clip-path="url(#clip0_1033_1628)">
<path d="M14.0291 3.43852C12.9265 2.57256 11.5825 2.06995 10.1823 2L9.99052 2.2192C11.2369 2.55154 12.3986 3.14458 13.3989 3.95912C12.1232 3.2562 10.7223 2.8096 9.27513 2.6445C8.35487 2.54309 7.42577 2.55229 6.5077 2.6719C5.3515 2.77993 4.22157 3.08093 3.16486 3.56241C2.65795 3.79532 2.35655 3.95972 2.35655 3.95972C3.41116 3.10403 4.64138 2.49126 5.95969 2.165L5.82269 2.0006C4.42145 2.06994 3.0763 2.57258 1.97294 3.43911C0.719155 5.91783 0.0445884 8.64889 0.00012207 11.4263C0.00012207 11.4263 1.15094 13.4128 4.17867 13.5111C4.17867 13.5111 4.68558 12.8946 5.09658 12.374C4.13339 12.1311 3.28535 11.5593 2.69905 10.7574C3.78939 11.4488 5.00289 11.9232 6.27301 12.1548C7.44466 12.3799 8.648 12.3845 9.82135 12.1685C11.0878 11.9373 12.2975 11.4627 13.3834 10.7711C12.7751 11.5901 11.8967 12.1676 10.9037 12.4014C11.3147 12.922 11.8079 13.5111 11.8079 13.5111C14.8356 13.4152 16.0001 11.4263 16.0001 11.4263C15.9563 8.64883 15.2823 5.91756 14.0291 3.43852ZM5.43909 10.1498C5.05781 10.1178 4.70249 9.94367 4.44351 9.66202C4.18454 9.38037 4.04081 9.01171 4.04081 8.62909C4.04081 8.24647 4.18454 7.87782 4.44351 7.59616C4.70249 7.31451 5.05781 7.14042 5.43909 7.10837C5.82036 7.14042 6.17568 7.31451 6.43466 7.59616C6.69363 7.87782 6.83736 8.24647 6.83736 8.62909C6.83736 9.01171 6.69363 9.38037 6.43466 9.66202C6.17568 9.94367 5.82036 10.1178 5.43909 10.1498ZM10.4426 10.1498C10.1364 10.1757 9.82949 10.1086 9.56207 9.95716C9.29464 9.80575 9.07916 9.57712 8.94383 9.30121C8.80849 9.0253 8.75961 8.71496 8.80358 8.41081C8.84756 8.10666 8.98233 7.82286 9.19027 7.59658C9.3982 7.3703 9.66961 7.21206 9.96897 7.14259C10.2683 7.07312 10.5817 7.09564 10.868 7.20722C11.1544 7.3188 11.4004 7.51423 11.5738 7.76793C11.7472 8.02163 11.84 8.32178 11.84 8.62909C11.8541 9.01596 11.7149 9.39273 11.4526 9.6775C11.1904 9.96227 10.8264 10.132 10.4396 10.1498H10.4426Z" fill="#71717A"/>
</g>
<defs>
<clipPath id="clip0_1033_1628">
<rect width="16" height="16" fill="white"/>
</clipPath>
</defs>
</svg>
