<svg width="32" height="24" viewBox="0 0 32 24" fill="none" xmlns="http://www.w3.org/2000/svg">
<path d="M28.0579 2.87703C25.8529 1.14511 23.1648 0.139903 20.3644 0L19.9808 0.438405C22.4736 1.10309 24.797 2.28915 26.7975 3.91825C24.2461 2.51239 21.4443 1.61921 18.55 1.28901C16.7095 1.08618 14.8513 1.10458 13.0152 1.34381C10.7028 1.55985 8.4429 2.16186 6.32947 3.12483C5.31566 3.59063 4.71285 3.91944 4.71285 3.91944C6.82207 2.20806 9.28251 0.982521 11.9191 0.329995L11.6451 0.00119066C8.84266 0.139876 6.15235 1.14515 3.94565 2.87822C1.43807 7.83566 0.0889326 13.2978 0 18.8526C0 18.8526 2.30163 22.8257 8.3571 23.0222C8.3571 23.0222 9.37091 21.7892 10.1929 20.748C8.26654 20.2622 6.57045 19.1185 5.39786 17.5148C7.57853 18.8975 10.0055 19.8465 12.5458 20.3096C14.8891 20.7598 17.2958 20.769 19.6425 20.337C22.1754 19.8745 24.5948 18.9254 26.7665 17.5422C25.5499 19.1802 23.7932 20.3351 21.8071 20.8028C22.6291 21.844 23.6155 23.0222 23.6155 23.0222C29.671 22.8304 32 18.8526 32 18.8526C31.9124 13.2977 30.5644 7.83512 28.0579 2.87703ZM10.8779 16.2996C10.1154 16.2355 9.40473 15.8873 8.88678 15.324C8.36883 14.7607 8.08138 14.0234 8.08138 13.2582C8.08138 12.4929 8.36883 11.7556 8.88678 11.1923C9.40473 10.629 10.1154 10.2808 10.8779 10.2167C11.6405 10.2808 12.3511 10.629 12.8691 11.1923C13.387 11.7556 13.6745 12.4929 13.6745 13.2582C13.6745 14.0234 13.387 14.7607 12.8691 15.324C12.3511 15.8873 11.6405 16.2355 10.8779 16.2996ZM20.885 16.2996C20.2726 16.3514 19.6587 16.2171 19.1239 15.9143C18.589 15.6115 18.1581 15.1542 17.8874 14.6024C17.6167 14.0506 17.519 13.4299 17.6069 12.8216C17.6949 12.2133 17.9644 11.6457 18.3803 11.1932C18.7962 10.7406 19.339 10.4241 19.9377 10.2852C20.5364 10.1462 21.1631 10.1913 21.7358 10.4144C22.3085 10.6376 22.8005 11.0285 23.1473 11.5359C23.4942 12.0433 23.6798 12.6436 23.6798 13.2582C23.708 14.0319 23.4295 14.7855 22.9051 15.355C22.3806 15.9245 21.6525 16.264 20.879 16.2996H20.885Z" fill="#FAFAFA"/>
</svg>
