<svg width="32" height="32" viewBox="0 0 32 32" fill="none" xmlns="http://www.w3.org/2000/svg">
<path d="M24.0535 18.0668C23.4935 18.6135 23.1735 19.4002 23.2535 20.2402C23.3735 21.6802 24.6935 22.7335 26.1335 22.7335H28.6668V24.3202C28.6668 27.0802 26.4135 29.3335 23.6535 29.3335H8.34683C5.58683 29.3335 3.3335 27.0802 3.3335 24.3202V15.3468C3.3335 12.5868 5.58683 10.3335 8.34683 10.3335H23.6535C26.4135 10.3335 28.6668 12.5868 28.6668 15.3468V17.2668H25.9735C25.2268 17.2668 24.5468 17.5601 24.0535 18.0668Z" stroke="#24B592" stroke-width="1.5" stroke-linecap="round" stroke-linejoin="round"/>
<path d="M3.3335 16.5467V10.4535C3.3335 8.86681 4.30683 7.45341 5.78683 6.89341L16.3735 2.89341C18.0268 2.26675 19.8002 3.49345 19.8002 5.26679V10.3334" stroke="#24B592" stroke-width="1.5" stroke-linecap="round" stroke-linejoin="round"/>
<path d="M30.0786 18.627V21.3738C30.0786 22.1071 29.4919 22.7071 28.7452 22.7337H26.1319C24.6919 22.7337 23.3719 21.6804 23.2519 20.2404C23.1719 19.4004 23.4919 18.6137 24.0519 18.0671C24.5452 17.5604 25.2252 17.2671 25.9719 17.2671H28.7452C29.4919 17.2938 30.0786 17.8937 30.0786 18.627Z" stroke="#24B592" stroke-width="1.5" stroke-linecap="round" stroke-linejoin="round"/>
<path d="M9.3335 16H18.6668" stroke="#24B592" stroke-width="1.5" stroke-linecap="round" stroke-linejoin="round"/>
</svg>
