<svg width="61" height="61" viewBox="0 0 61 61" fill="none" xmlns="http://www.w3.org/2000/svg">
<path d="M55.6657 44.9375C54.2891 43.2969 50.1328 41.3281 50.1328 41.3281L47.5078 43.1328L47.7813 46.7422L54.6172 46.9062L55.6657 44.9375Z" fill="#EAD8C5"/>
<path d="M43.625 0.3125C37.8996 0.3125 34.7008 4.97161 33.125 8.36189C31.5492 4.97161 28.3504 0.3125 22.625 0.3125C19.0066 0.3125 16.0625 3.25665 16.0625 6.875C16.0625 10.4934 19.0066 13.4375 22.625 13.4375H33.125H43.625C47.2434 13.4375 50.1875 10.4934 50.1875 6.875C50.1875 3.25665 47.2434 0.3125 43.625 0.3125ZM22.625 10.8125C20.4537 10.8125 18.6875 9.04627 18.6875 6.875C18.6875 4.70373 20.4537 2.9375 22.625 2.9375C27.6187 2.9375 30.2616 8.09457 31.3075 10.8125H22.625ZM43.625 10.8125H34.9425C35.9884 8.09457 38.6313 2.9375 43.625 2.9375C45.7963 2.9375 47.5625 4.70373 47.5625 6.875C47.5625 9.04627 45.7963 10.8125 43.625 10.8125Z" fill="#24B592"/>
<path d="M52.8125 44.9375H12.125C11.4001 44.9375 10.8125 44.3499 10.8125 43.625V20C10.8125 19.2751 11.4001 18.6875 12.125 18.6875H54.125C54.8499 18.6875 55.4375 19.2751 55.4375 20V42.3125C55.4375 43.7622 54.2622 44.9375 52.8125 44.9375Z" fill="#E25148"/>
<path d="M58.0625 21.3125H8.1875C6.73775 21.3125 5.5625 20.1372 5.5625 18.6875V13.4375C5.5625 11.9878 6.73775 10.8125 8.1875 10.8125H58.0625C59.5122 10.8125 60.6875 11.9878 60.6875 13.4375V18.6875C60.6875 20.1372 59.5122 21.3125 58.0625 21.3125Z" fill="#F9645B"/>
<path d="M39.6875 10.8125H26.5625V21.3125H39.6875V10.8125Z" fill="#4AE9C2"/>
<path d="M39.6875 21.3125H26.5625V44.9375H39.6875V21.3125Z" fill="#24B592"/>
<path d="M55.6657 44.9375H21.3125C19.8628 44.9375 18.6875 43.7622 18.6875 42.3125C18.6875 40.8628 19.8628 39.6875 21.3125 39.6875H32.9024C35.0343 39.6875 36.9452 38.0912 37.0569 35.9623C37.1761 33.6914 35.3705 31.8125 33.125 31.8125H0.3125V50.8162L21.9021 59.8165C24.2919 60.7124 26.9359 60.6998 29.3682 60.0857L58.365 49.6902C57.7548 47.6551 56.8231 46.0972 55.6657 44.9375Z" fill="#DFD1B6"/>
</svg>
