<svg width="44" height="44" viewBox="0 0 44 44" fill="none" xmlns="http://www.w3.org/2000/svg">
<path fill-rule="evenodd" clip-rule="evenodd" d="M21.522 39.7075C17.1808 37.0358 13.1422 33.8913 9.47858 30.3303C6.90288 27.7659 4.94201 24.6395 3.74619 21.1908C1.59429 14.5006 4.10786 6.84165 11.1422 4.57504C14.8392 3.38487 18.8769 4.0651 21.9922 6.40295C25.1087 4.06795 29.1449 3.38796 32.8421 4.57504C39.8765 6.84165 42.4082 14.5006 40.2563 21.1908C39.0604 24.6395 37.0996 27.7659 34.5239 30.3303C30.8602 33.8913 26.8217 37.0358 22.4804 39.7075L22.0103 40L21.522 39.7075Z" stroke="#24B592" stroke-width="2" stroke-linecap="round" stroke-linejoin="round"/>
<path d="M29.4786 12.1064C31.6093 12.787 33.1231 14.6998 33.3123 16.9504" stroke="#E25148" stroke-width="2" stroke-linecap="round" stroke-linejoin="round"/>
</svg>
