<svg width="16" height="14" viewBox="0 0 16 14" fill="none" xmlns="http://www.w3.org/2000/svg">
<path d="M11.33 0.32666C9.9725 0.32666 8.7575 0.98666 8 1.99916C7.6131 1.48077 7.11069 1.0597 6.53265 0.769381C5.95461 0.479059 5.31685 0.327474 4.67 0.32666C2.3675 0.32666 0.5 2.20166 0.5 4.51916C0.5 5.41166 0.6425 6.23666 0.89 7.00166C2.075 10.7517 5.7275 12.9942 7.535 13.6092C7.79 13.6992 8.21 13.6992 8.465 13.6092C10.2725 12.9942 13.925 10.7517 15.11 7.00166C15.3575 6.23666 15.5 5.41166 15.5 4.51916C15.5 2.20166 13.6325 0.32666 11.33 0.32666Z" fill="#FAFAFA"/>
</svg>
