<svg width="12" height="12" viewBox="0 0 12 12" fill="none" xmlns="http://www.w3.org/2000/svg">
<g id="logo-twitter 1">
<g id="Group">
<path id="Vector" d="M12 2.30039C11.55 2.50039 11.1 2.65039 10.6 2.70039C11.1 2.40039 11.5 1.90039 11.7 1.35039C11.2 1.65039 10.7 1.85039 10.15 1.95039C9.7 1.45039 9.05 1.15039 8.35 1.15039C7 1.15039 5.9 2.25039 5.9 3.60039C5.9 3.80039 5.9 4.00039 5.95 4.15039C3.85 4.05039 2.05 3.05039 0.85 1.55039C0.6 1.95039 0.5 2.35039 0.5 2.80039C0.5 3.65039 0.95 4.40039 1.6 4.85039C1.2 4.85039 0.8 4.75039 0.5 4.55039C0.5 4.55039 0.5 4.55039 0.5 4.60039C0.5 5.80039 1.35 6.80039 2.45 7.00039C2.25 7.05039 2.05 7.10039 1.8 7.10039C1.65 7.10039 1.5 7.10039 1.35 7.05039C1.65 8.05039 2.55 8.75039 3.65 8.75039C2.8 9.40039 1.75 9.80039 0.6 9.80039C0.4 9.80039 0.2 9.80039 0 9.75039C1.1 10.4504 2.4 10.8504 3.75 10.8504C8.3 10.8504 10.75 7.10039 10.75 3.85039C10.75 3.75039 10.75 3.65039 10.75 3.55039C11.25 3.20039 11.65 2.75039 12 2.30039Z" fill="#1D9BF0"/>
</g>
</g>
</svg>
