<svg width="32" height="32" viewBox="0 0 32 32" fill="none" xmlns="http://www.w3.org/2000/svg">
<g clip-path="url(#clip0_960_1668)">
<path d="M19.8293 19.0498L28.5253 27.7431C28.1767 28.2058 27.7316 28.5871 27.221 28.8606C26.7103 29.1342 26.1463 29.2933 25.5679 29.3271L25.3333 29.3338H6.66661C6.0479 29.3345 5.4375 29.1914 4.88356 28.9158C4.32961 28.6402 3.84728 28.2397 3.47461 27.7458L12.1693 19.0498L15.2599 21.1098L15.4146 21.1978C15.5969 21.2869 15.7971 21.3332 15.9999 21.3332C16.2028 21.3332 16.403 21.2869 16.5853 21.1978L16.7399 21.1098L19.8293 19.0498Z" fill="#FAFAFA"/>
<path d="M2.66699 12.7129L9.90566 17.5396L2.66699 24.7796V12.7129Z" fill="#FAFAFA"/>
<path d="M29.3337 12.7129V24.7796L22.0938 17.5396L29.3337 12.7129Z" fill="#FAFAFA"/>
<path d="M16.5867 2.80229L16.74 2.89029L27.9987 10.3956L16 18.3956L4 10.3956L15.26 2.88896C15.4541 2.75995 15.6786 2.68406 15.9111 2.66886C16.1436 2.65365 16.3774 2.69966 16.5867 2.80229Z" fill="#FAFAFA"/>
</g>
<defs>
<clipPath id="clip0_960_1668">
<rect width="32" height="32" fill="white"/>
</clipPath>
</defs>
</svg>
