<svg width="16" height="16" viewBox="0 0 16 16" fill="none" xmlns="http://www.w3.org/2000/svg">
<g clip-path="url(#clip0_1033_1625)">
<path d="M15.3333 0H0.666667C0.489856 0 0.320286 0.0702379 0.195262 0.195262C0.0702379 0.320286 0 0.489856 0 0.666667L0 15.3333C0 15.5101 0.0702379 15.6797 0.195262 15.8047C0.320286 15.9298 0.489856 16 0.666667 16H15.3333C15.5101 16 15.6797 15.9298 15.8047 15.8047C15.9298 15.6797 16 15.5101 16 15.3333V0.666667C16 0.489856 15.9298 0.320286 15.8047 0.195262C15.6797 0.0702379 15.5101 0 15.3333 0ZM13.5733 3.9L12.6667 4.72C12.6311 4.74801 12.6036 4.78505 12.5872 4.82726C12.5708 4.86947 12.566 4.91531 12.5733 4.96V11.28C12.566 11.3247 12.5708 11.3705 12.5872 11.4127C12.6036 11.455 12.6311 11.492 12.6667 11.52L13.5667 12.4067V12.5867H9.33333V12.4067L10.1067 11.5C10.1933 11.4133 10.1933 11.3867 10.1933 11.26V6.66667L8.32667 11.9333L8.12667 12.6H7.6C5.83333 8.74 5.27333 7.38667 4.73333 6.46V11.1267L5.82667 12.46V12.64H2.66667V12.46L3.73333 11.1267V5.12667L2.90667 4.1V3.74667H6.08667L8.23333 8.88667L10 4.04C10.0268 3.9231 10.0948 3.81973 10.1914 3.74874C10.2881 3.67776 10.4071 3.6439 10.5267 3.65333H13.58L13.5733 3.9Z" fill="#71717A"/>
</g>
<defs>
<clipPath id="clip0_1033_1625">
<rect width="16" height="16" fill="white"/>
</clipPath>
</defs>
</svg>
