<svg width="20" height="20" viewBox="0 0 20 20" fill="none" xmlns="http://www.w3.org/2000/svg">
<rect width="20" height="20" rx="10" fill="#FAFAFA"/>
<path d="M15.7142 6.95882C16.1835 7.46777 15.7174 8.16634 15.025 8.16634H4.3335C3.78121 8.16634 3.3335 7.71863 3.3335 7.16634V6.27967C3.3335 4.65301 4.6535 3.33301 6.28016 3.33301H7.82683C8.9135 3.33301 9.2535 3.68634 9.68683 4.26634L10.6202 5.50634C10.8268 5.77967 10.8535 5.81301 11.2402 5.81301H13.1002C14.1332 5.81301 15.0642 6.25397 15.7142 6.95882Z" fill="#18181B"/>
<path d="M15.6569 9.16603C16.2078 9.16602 16.655 9.61168 16.6569 10.1626L16.6668 13.0995C16.6668 15.0662 15.0668 16.6662 13.1002 16.6662H6.90016C4.9335 16.6662 3.3335 15.0662 3.3335 13.0995V10.1662C3.3335 9.6139 3.7812 9.16619 4.33348 9.16618L15.6569 9.16603Z" fill="#18181B"/>
</svg>
