<svg width="16" height="16" viewBox="0 0 16 16" fill="none" xmlns="http://www.w3.org/2000/svg">
<path d="M15.4399 11.562C15.1924 13.557 13.5574 15.192 11.5624 15.4395C10.3549 15.5895 9.2299 15.2595 8.3524 14.6145C7.8499 14.247 7.9699 13.467 8.5699 13.287C9.68417 12.9465 10.6978 12.3376 11.5216 11.5137C12.3455 10.6898 12.9544 9.67623 13.2949 8.56196C13.4749 7.96946 14.2549 7.84946 14.6224 8.34446C15.2936 9.27423 15.5859 10.4246 15.4399 11.562Z" fill="#FAFAFA"/>
<path d="M6.4925 0.5C3.185 0.5 0.5 3.185 0.5 6.4925C0.5 9.8 3.185 12.485 6.4925 12.485C9.8 12.485 12.485 9.8 12.485 6.4925C12.4775 3.185 9.8 0.5 6.4925 0.5ZM5.7875 5.6525L7.595 6.2825C8.2475 6.515 8.5625 6.9725 8.5625 7.6775C8.5625 8.4875 7.9175 9.155 7.13 9.155H7.0625V9.1925C7.0625 9.5 6.8075 9.755 6.5 9.755C6.1925 9.755 5.9375 9.5 5.9375 9.1925V9.1475C5.105 9.11 4.4375 8.4125 4.4375 7.5425C4.4375 7.235 4.6925 6.98 5 6.98C5.3075 6.98 5.5625 7.235 5.5625 7.5425C5.5625 7.8125 5.7575 8.03 5.9975 8.03H7.1225C7.295 8.03 7.43 7.8725 7.43 7.6775C7.43 7.415 7.385 7.4 7.2125 7.34L5.405 6.71C4.76 6.485 4.4375 6.0275 4.4375 5.315C4.4375 4.505 5.0825 3.8375 5.87 3.8375H5.9375V3.8075C5.9375 3.5 6.1925 3.245 6.5 3.245C6.8075 3.245 7.0625 3.5 7.0625 3.8075V3.8525C7.895 3.89 8.5625 4.5875 8.5625 5.4575C8.5625 5.765 8.3075 6.02 8 6.02C7.6925 6.02 7.4375 5.765 7.4375 5.4575C7.4375 5.1875 7.2425 4.97 7.0025 4.97H5.8775C5.705 4.97 5.57 5.1275 5.57 5.3225C5.5625 5.5775 5.6075 5.5925 5.7875 5.6525Z" fill="#FAFAFA"/>
</svg>
