<svg width="44" height="44" viewBox="0 0 44 44" fill="none" xmlns="http://www.w3.org/2000/svg">
<path d="M34.8334 14.667C37.8709 14.667 40.3334 12.2046 40.3334 9.16699C40.3334 6.12943 37.8709 3.66699 34.8334 3.66699C31.7958 3.66699 29.3334 6.12943 29.3334 9.16699C29.3334 12.2046 31.7958 14.667 34.8334 14.667Z" stroke="#E25148" stroke-width="2" stroke-linecap="round" stroke-linejoin="round"/>
<path d="M25.7033 4.03366C24.4933 3.79533 23.265 3.66699 22 3.66699C11.88 3.66699 3.66663 11.8803 3.66663 22.0003C3.66663 32.1203 11.88 40.3337 22 40.3337C32.12 40.3337 40.3333 32.1203 40.3333 22.0003C40.3333 20.7537 40.205 19.5253 39.9666 18.352" stroke="#24B592" stroke-width="2" stroke-linecap="round" stroke-linejoin="round"/>
</svg>
