<svg width="16" height="16" viewBox="0 0 16 16" fill="none" xmlns="http://www.w3.org/2000/svg">
<g clip-path="url(#clip0_1033_1639)">
<path d="M16 8C16 12.418 12.418 16 8 16C3.58197 16 0 12.418 0 8C0 3.58197 3.58197 0 8 0C12.419 0 16 3.58197 16 8Z" fill="#71717A"/>
<path d="M3.66112 8.71018L3.7 8.64906L6.04445 4.98147C6.07871 4.92778 6.15926 4.93333 6.18518 4.99165C6.57686 5.86943 6.91482 6.9611 6.75649 7.64073C6.6889 7.92037 6.50371 8.29906 6.29537 8.64906C6.26853 8.7 6.2389 8.75 6.20741 8.79814C6.19259 8.82037 6.16759 8.83333 6.14074 8.83333H3.72963C3.66482 8.83333 3.62686 8.76296 3.66112 8.71018Z" fill="#11141E"/>
<path d="M14.1111 9.39167V9.97222C14.1111 10.0056 14.0907 10.0352 14.0611 10.0481C13.8796 10.1259 13.2583 10.4111 13 10.7704C12.3407 11.688 11.837 13 10.7111 13H6.01388C4.34908 13 3 11.6463 3 9.97592V9.92222C3 9.87777 3.0361 9.84167 3.08055 9.84167H5.69908C5.75092 9.84167 5.78888 9.88981 5.78426 9.94073C5.76574 10.1111 5.79722 10.2852 5.87778 10.4435C6.03333 10.7593 6.35555 10.9565 6.70369 10.9565H8V9.94445H6.71851C6.65278 9.94445 6.6139 9.86851 6.65186 9.81482C6.66574 9.79351 6.68149 9.7713 6.69814 9.7463C6.81945 9.57408 6.99259 9.30649 7.16482 9.00186C7.28241 8.7963 7.39629 8.57686 7.48796 8.35649C7.50649 8.31667 7.52129 8.27592 7.5361 8.2361C7.5611 8.16573 7.58704 8.1 7.60555 8.03426C7.62408 7.97869 7.63888 7.92037 7.65369 7.86573C7.69722 7.67869 7.71573 7.48055 7.71573 7.275C7.71573 7.19445 7.71204 7.11018 7.70463 7.02963C7.70092 6.94167 7.68982 6.85369 7.67869 6.76573C7.67129 6.68796 7.65741 6.6111 7.64259 6.53055C7.62408 6.41296 7.59814 6.2963 7.56851 6.17869L7.55833 6.13426C7.5361 6.05369 7.51759 5.97686 7.49167 5.8963C7.41851 5.64351 7.33426 5.39722 7.24537 5.16667C7.21296 5.075 7.17592 4.98704 7.13888 4.89908C7.08426 4.76667 7.02869 4.6463 6.97778 4.53241C6.95186 4.48055 6.92963 4.43333 6.90741 4.38518C6.88241 4.33055 6.85649 4.27592 6.83055 4.22408C6.81204 4.18426 6.79073 4.14722 6.77592 4.11018L6.61759 3.81759C6.59537 3.77778 6.63241 3.73055 6.67592 3.74259L7.66667 4.0111H7.66945L7.67314 4.01204L7.8037 4.04814L7.94722 4.0889L8 4.10369V3.51482C8 3.23055 8.22778 3 8.50926 3C8.65 3 8.77778 3.05741 8.86945 3.15092C8.9611 3.24445 9.01851 3.37222 9.01851 3.51482V4.3889L9.12408 4.41851C9.13241 4.4213 9.14073 4.425 9.14814 4.43055C9.17408 4.45 9.2111 4.47869 9.25833 4.5139C9.29537 4.54351 9.33518 4.57963 9.38333 4.61667C9.47869 4.69351 9.59259 4.79259 9.71759 4.90649C9.75092 4.93518 9.78333 4.96482 9.81296 4.99445C9.97408 5.14445 10.1546 5.32037 10.3269 5.51482C10.375 5.56945 10.4222 5.625 10.4704 5.68333C10.5185 5.74259 10.5694 5.80092 10.6139 5.85926C10.6722 5.93704 10.7352 6.01759 10.7898 6.10186C10.8157 6.14167 10.8454 6.18241 10.8704 6.22222C10.9407 6.32869 11.0028 6.4389 11.062 6.54908C11.087 6.6 11.113 6.65555 11.1352 6.71018C11.2009 6.85741 11.2528 7.00741 11.2861 7.15741C11.2963 7.18982 11.3037 7.225 11.3074 7.25649V7.2639C11.3185 7.30833 11.3222 7.35555 11.3259 7.40369C11.3407 7.55741 11.3333 7.7111 11.3 7.86573C11.2861 7.93149 11.2676 7.99351 11.2454 8.05926C11.2231 8.12222 11.2009 8.18796 11.1722 8.25C11.1167 8.37869 11.0509 8.50741 10.9731 8.62778C10.9481 8.67222 10.9185 8.71945 10.8889 8.7639C10.8565 8.8111 10.8231 8.85555 10.7935 8.89908C10.7528 8.95463 10.7093 9.01296 10.6648 9.06482C10.625 9.11945 10.5843 9.17408 10.5398 9.22222C10.4778 9.29537 10.4185 9.36482 10.3565 9.43149C10.3194 9.475 10.2796 9.51945 10.2389 9.55926C10.1991 9.60369 10.1583 9.64351 10.1213 9.68055C10.0593 9.74259 10.0074 9.79073 9.96388 9.83055L9.86204 9.92408C9.84722 9.93704 9.82778 9.94445 9.80741 9.94445H9.01851V10.9565H10.0111C10.2333 10.9565 10.4444 10.8778 10.6148 10.7333C10.6731 10.6824 10.9278 10.462 11.2287 10.1296C11.2389 10.1185 11.2519 10.1102 11.2667 10.1065L14.0083 9.3139C14.0593 9.29908 14.1111 9.33796 14.1111 9.39167Z" fill="#11141E"/>
</g>
<defs>
<clipPath id="clip0_1033_1639">
<rect width="16" height="16" fill="white"/>
</clipPath>
</defs>
</svg>
