<svg width="39" height="27" viewBox="0 0 39 27" fill="none" xmlns="http://www.w3.org/2000/svg">
<path d="M30.1583 0.389484C29.0942 0.374346 28.0377 0.570863 27.0502 0.967612C26.0627 1.36436 25.1639 1.95343 24.406 2.70058C23.6482 3.44773 23.0464 4.33806 22.6356 5.31982C22.2249 6.30158 22.0133 7.3552 22.0133 8.41942C22.0133 9.48365 22.2249 10.5373 22.6356 11.519C23.0464 12.5008 23.6482 13.3911 24.406 14.1383C25.1639 14.8854 26.0627 15.4745 27.0502 15.8712C28.0377 16.268 29.0942 16.4645 30.1583 16.4494C30.7694 16.4472 31.3778 16.3702 31.9702 16.2202C32.0476 16.2012 32.1288 16.2054 32.2038 16.2322C32.2788 16.259 32.3443 16.3073 32.3921 16.371C32.4399 16.4347 32.4679 16.5111 32.4726 16.5906C32.4773 16.6701 32.4586 16.7493 32.4187 16.8182C31.4721 18.5294 30.0901 19.96 28.4128 20.9653C26.7354 21.9706 24.8223 22.5149 22.8669 22.5431C22.3282 22.5431 21.8116 22.7571 21.4306 23.138C21.0497 23.519 20.8357 24.0356 20.8357 24.5744C20.8357 25.1131 21.0497 25.6297 21.4306 26.0107C21.8116 26.3916 22.3282 26.6056 22.8669 26.6056C27.0402 26.4857 30.9958 24.7167 33.8673 21.6861C36.7389 18.6556 38.2924 14.6105 38.1874 10.4369V8.41861C38.1849 6.28995 37.3381 4.2492 35.8329 2.74401C34.3277 1.23882 32.287 0.392065 30.1583 0.389484Z" fill="#FAFAFA"/>
<path d="M10.1335 0.389648C8.02361 0.419664 6.01031 1.27888 4.52889 2.78152C3.04747 4.28416 2.21698 6.30948 2.21698 8.41959C2.21698 10.5297 3.04747 12.555 4.52889 14.0577C6.01031 15.5603 8.02361 16.4195 10.1335 16.4495C10.7446 16.4475 11.3531 16.3705 11.9454 16.2204C12.0228 16.201 12.1043 16.2048 12.1796 16.2315C12.2549 16.2581 12.3207 16.3063 12.3687 16.3701C12.4168 16.434 12.4449 16.5105 12.4497 16.5902C12.4544 16.67 12.4356 16.7493 12.3955 16.8184C11.4489 18.5295 10.0669 19.9602 8.38959 20.9655C6.71225 21.9708 4.79908 22.5151 2.84375 22.5433C2.30503 22.5433 1.78837 22.7573 1.40744 23.1382C1.02651 23.5191 0.8125 24.0358 0.8125 24.5745C0.8125 25.1132 1.02651 25.6299 1.40744 26.0108C1.78837 26.3918 2.30503 26.6058 2.84375 26.6058C7.01683 26.4854 10.9722 24.7163 13.8437 21.6858C16.7151 18.6554 18.2687 14.6105 18.1643 10.437V8.41877C18.1617 6.28983 17.3147 4.24884 15.8091 2.7436C14.3036 1.23836 12.2624 0.391799 10.1335 0.389648Z" fill="#FAFAFA"/>
</svg>
