<svg width="32" height="28" viewBox="0 0 32 28" fill="none" xmlns="http://www.w3.org/2000/svg">
<path d="M31.9376 1.36916C31.9117 1.25099 31.855 1.14178 31.7733 1.05258C31.6915 0.96337 31.5877 0.897335 31.4723 0.861155C31.0518 0.777889 30.6168 0.808735 30.2123 0.950489C30.2123 0.950489 2.17362 11.0292 0.572283 12.1452C0.228283 12.3852 0.112283 12.5252 0.0549493 12.6892C-0.222384 13.4892 0.640283 13.8332 0.640283 13.8332L7.86695 16.1878C7.98914 16.2097 8.11479 16.2024 8.23362 16.1665C9.87628 15.1278 24.7669 5.72116 25.6323 5.40516C25.7656 5.36516 25.8683 5.40516 25.8416 5.50516C25.4976 6.71182 12.6296 18.1425 12.5589 18.2118C12.5245 18.24 12.4977 18.2764 12.4809 18.3176C12.4642 18.3588 12.458 18.4036 12.4629 18.4478L11.7883 25.5038C11.7883 25.5038 11.5056 27.6998 13.7016 25.5038C15.2589 23.9452 16.7536 22.6545 17.5003 22.0265C19.9856 23.7425 22.6589 25.6398 23.8123 26.6332C24.0063 26.8209 24.2361 26.9677 24.4882 27.0646C24.7402 27.1615 25.0091 27.2066 25.2789 27.1972C25.6112 27.1567 25.9233 27.0159 26.1736 26.7937C26.424 26.5715 26.6007 26.2783 26.6803 25.9532C26.6803 25.9532 31.7869 5.38916 31.9576 2.63449C31.9749 2.36782 31.9976 2.19182 32.0003 2.00649C32.0086 1.79218 31.9875 1.57774 31.9376 1.36916Z" fill="#FAFAFA"/>
</svg>
