<svg width="16" height="16" viewBox="0 0 16 16" fill="none" xmlns="http://www.w3.org/2000/svg">
<g clip-path="url(#clip0_1033_1619)">
<path d="M15.9687 1.68507C15.9557 1.62599 15.9274 1.57138 15.8865 1.52678C15.8457 1.48217 15.7937 1.44916 15.736 1.43107C15.5258 1.38943 15.3083 1.40486 15.106 1.47573C15.106 1.47573 1.08669 6.51507 0.286019 7.07307C0.114019 7.19307 0.0560192 7.26307 0.0273526 7.34507C-0.111314 7.74507 0.320019 7.91707 0.320019 7.91707L3.93335 9.0944C3.99445 9.10536 4.05727 9.1017 4.11669 9.08373C4.93802 8.5644 12.3834 3.86107 12.816 3.70307C12.8827 3.68307 12.934 3.70307 12.9207 3.75307C12.7487 4.3564 6.31469 10.0717 6.27935 10.1064C6.26214 10.1205 6.24873 10.1387 6.24035 10.1593C6.23196 10.1799 6.22887 10.2023 6.23135 10.2244L5.89402 13.7524C5.89402 13.7524 5.75269 14.8504 6.85069 13.7524C7.62935 12.9731 8.37669 12.3277 8.75002 12.0137C9.99269 12.8717 11.3294 13.8204 11.906 14.3171C12.003 14.411 12.118 14.4843 12.244 14.5328C12.37 14.5812 12.5044 14.6038 12.6394 14.5991C12.8055 14.5788 12.9615 14.5085 13.0867 14.3973C13.2119 14.2862 13.3002 14.1396 13.34 13.9771C13.34 13.9771 15.8934 3.69507 15.9787 2.31773C15.9874 2.1844 15.9987 2.0964 16 2.00373C16.0042 1.89658 15.9936 1.78936 15.9687 1.68507Z" fill="#71717A"/>
</g>
<defs>
<clipPath id="clip0_1033_1619">
<rect width="16" height="16" fill="white"/>
</clipPath>
</defs>
</svg>
