<svg width="10" height="8" viewBox="0 0 10 8" fill="none" xmlns="http://www.w3.org/2000/svg">
<path d="M9.94263 0.666425C10.127 1.18702 9.85445 1.75852 9.33385 1.9429C8.80021 2.1319 8.18374 2.53876 7.53067 3.11148C6.88797 3.67513 6.26283 4.35205 5.70906 5.01586C5.15722 5.67736 4.68846 6.31109 4.35741 6.78008C4.19224 7.01407 3.84407 7.53651 3.84407 7.53651C3.65078 7.84059 3.30872 8.01739 2.94886 7.99896C2.58893 7.98053 2.26675 7.76985 2.10557 7.44749C1.66489 6.56612 1.11042 6.01489 0.906375 5.99595C0.397991 5.94874 0 5.52099 0 5.00027C0 4.44799 0.447715 4.00027 1 4.00027C1.55228 4.00027 1.9053 4.23529 2.1797 4.41822C2.45398 4.60107 2.74163 4.85384 3.03039 5.1997C3.34557 4.76895 3.734 4.26128 4.17329 3.73468C4.76659 3.02349 5.46497 2.26292 6.21197 1.60781C6.94861 0.96179 7.78803 0.368648 8.66615 0.0576453C9.18675 -0.126733 9.75825 0.145827 9.94263 0.666425Z" fill="#34D399"/>
</svg>
