<svg width="16" height="18" viewBox="0 0 16 18" fill="none" xmlns="http://www.w3.org/2000/svg">
<path d="M15.1835 8.35139C15.1654 8.29209 15.1329 8.23818 15.0889 8.19451C15.0449 8.15084 14.9908 8.11876 14.9313 8.10115C14.8719 8.08354 14.809 8.08095 14.7483 8.0936C14.6876 8.10625 14.631 8.13375 14.5835 8.17364C14.141 8.54981 13.6498 8.86464 13.1233 9.10964C13.0956 9.12255 13.0653 9.1285 13.0348 9.12697C13.0044 9.12545 12.9748 9.11649 12.9486 9.10088C12.9224 9.08527 12.9004 9.06348 12.8846 9.03742C12.8688 9.01137 12.8595 8.98183 12.8578 8.95139C12.6922 6.78223 11.814 4.72868 10.36 3.11051C8.90598 1.49234 6.95768 0.400373 4.81851 0.00464281C4.74824 -0.00651831 4.67624 0.00254163 4.61093 0.0307647C4.54562 0.0589878 4.48968 0.105209 4.44965 0.164032C4.40963 0.222855 4.38716 0.291851 4.38487 0.362964C4.38259 0.434078 4.40058 0.504373 4.43676 0.565643C5.05236 1.65092 5.37566 2.87743 5.37501 4.12514C5.37531 4.97787 5.21528 5.82305 4.90326 6.61664C4.89052 6.64864 4.86926 6.67653 4.84177 6.69728C4.81428 6.71803 4.78163 6.73085 4.74737 6.73433C4.71311 6.73781 4.67855 6.73182 4.64745 6.71702C4.61635 6.70222 4.58991 6.67918 4.57101 6.65039C4.22791 6.11913 3.96319 5.54119 3.78501 4.93439C3.76738 4.87478 3.73521 4.82048 3.69139 4.77638C3.64757 4.73228 3.59348 4.69977 3.53397 4.68177C3.47447 4.66377 3.41142 4.66085 3.35051 4.67326C3.28959 4.68568 3.23272 4.71304 3.18501 4.75289C2.3433 5.45528 1.66644 6.33426 1.20243 7.32749C0.738409 8.32071 0.498601 9.40387 0.500006 10.5001C0.500006 10.6351 0.500006 10.7694 0.507506 10.9029C0.593172 12.8685 1.44776 14.7217 2.88705 16.063C4.32634 17.4044 6.23507 18.1265 8.2018 18.0736C10.1685 18.0208 12.0357 17.1973 13.4009 15.7806C14.7661 14.3639 15.52 12.4675 15.5 10.5001C15.5009 9.77221 15.3943 9.04814 15.1835 8.35139ZM8.00001 15.9376C7.59937 15.9359 7.2031 15.8542 6.83438 15.6975C6.46566 15.5408 6.13188 15.3121 5.85256 15.0249C5.57323 14.7377 5.35397 14.3977 5.20758 14.0248C5.0612 13.6518 4.99063 13.2534 5.00001 12.8529C5.01373 11.7458 5.3513 10.6669 5.97104 9.74944C6.59079 8.83195 7.46559 8.11599 8.48751 7.68989C8.52569 7.67489 8.56774 7.67277 8.60724 7.68386C8.64675 7.69496 8.68155 7.71865 8.70634 7.75135C8.73114 7.78404 8.74457 7.82394 8.7446 7.86497C8.74463 7.906 8.73125 7.94592 8.70651 7.97864C8.38535 8.42506 8.18426 8.9465 8.12254 9.49297C8.06081 10.0394 8.14052 10.5926 8.35401 11.0994C8.36673 11.1257 8.38531 11.1487 8.40833 11.1666C8.43135 11.1845 8.45818 11.197 8.48676 11.2029C8.5154 11.2085 8.54494 11.2073 8.57306 11.1995C8.60117 11.1917 8.62709 11.1774 8.64876 11.1579C8.90399 10.9519 9.09522 10.6774 9.20001 10.3666C9.20741 10.3405 9.22053 10.3162 9.23843 10.2958C9.25633 10.2753 9.27856 10.259 9.30351 10.2481C9.3283 10.2367 9.3553 10.2307 9.38263 10.2307C9.40996 10.2307 9.43696 10.2367 9.46176 10.2481C9.95654 10.4927 10.3672 10.8791 10.6412 11.3582C10.9152 11.8373 11.0401 12.3872 11 12.9376C11.008 13.3338 10.9358 13.7275 10.7879 14.095C10.6399 14.4626 10.4192 14.7965 10.1391 15.0767C9.85888 15.3569 9.52498 15.5776 9.15741 15.7255C8.78983 15.8734 8.39616 15.9456 8.00001 15.9376Z" fill="#11141E"/>
</svg>
