<svg width="12" height="10" viewBox="0 0 12 10" fill="none" xmlns="http://www.w3.org/2000/svg">
<path d="M12 1.2999C11.55 1.4999 11.1 1.6499 10.6 1.6999C11.1 1.3999 11.5 0.899902 11.7 0.349902C11.2 0.649902 10.7 0.849902 10.15 0.949902C9.7 0.449902 9.05 0.149902 8.35 0.149902C7 0.149902 5.9 1.2499 5.9 2.5999C5.9 2.7999 5.9 2.9999 5.95 3.1499C3.85 3.0499 2.05 2.0499 0.85 0.549902C0.6 0.949902 0.5 1.3499 0.5 1.7999C0.5 2.6499 0.95 3.3999 1.6 3.8499C1.2 3.8499 0.8 3.7499 0.5 3.5499C0.5 3.5499 0.5 3.5499 0.5 3.5999C0.5 4.7999 1.35 5.7999 2.45 5.9999C2.25 6.0499 2.05 6.0999 1.8 6.0999C1.65 6.0999 1.5 6.0999 1.35 6.0499C1.65 7.0499 2.55 7.7499 3.65 7.7499C2.8 8.3999 1.75 8.7999 0.6 8.7999C0.4 8.7999 0.2 8.7999 0 8.7499C1.1 9.4499 2.4 9.8499 3.75 9.8499C8.3 9.8499 10.75 6.0999 10.75 2.8499C10.75 2.7499 10.75 2.6499 10.75 2.5499C11.25 2.1999 11.65 1.7499 12 1.2999Z" fill="#1D9BF0"/>
</svg>
