<svg width="20" height="20" viewBox="0 0 20 20" fill="none" xmlns="http://www.w3.org/2000/svg">
<g id="logo-twitter 1">
<g id="Group">
<path id="Vector" d="M20 3.83317C19.25 4.1665 18.5 4.4165 17.6667 4.49984C18.5 3.99984 19.1667 3.1665 19.5 2.24984C18.6667 2.74984 17.8333 3.08317 16.9167 3.24984C16.1667 2.4165 15.0833 1.9165 13.9167 1.9165C11.6667 1.9165 9.83333 3.74984 9.83333 5.99984C9.83333 6.33317 9.83333 6.6665 9.91667 6.9165C6.41667 6.74984 3.41667 5.08317 1.41667 2.58317C1 3.24984 0.833333 3.9165 0.833333 4.6665C0.833333 6.08317 1.58333 7.33317 2.66667 8.08317C2 8.08317 1.33333 7.9165 0.833333 7.58317C0.833333 7.58317 0.833333 7.58317 0.833333 7.6665C0.833333 9.6665 2.25 11.3332 4.08333 11.6665C3.75 11.7498 3.41667 11.8332 3 11.8332C2.75 11.8332 2.5 11.8332 2.25 11.7498C2.75 13.4165 4.25 14.5832 6.08333 14.5832C4.66667 15.6665 2.91667 16.3332 1 16.3332C0.666667 16.3332 0.333333 16.3332 0 16.2498C1.83333 17.4165 4 18.0832 6.25 18.0832C13.8333 18.0832 17.9167 11.8332 17.9167 6.4165C17.9167 6.24984 17.9167 6.08317 17.9167 5.9165C18.75 5.33317 19.4167 4.58317 20 3.83317Z" fill="#FAFAFA"/>
</g>
</g>
</svg>
