<svg width="16" height="14" viewBox="0 0 16 14" fill="none" xmlns="http://www.w3.org/2000/svg">
<path d="M16 2.06654C15.4 2.3332 14.8 2.5332 14.1333 2.59987C14.8 2.19987 15.3333 1.5332 15.6 0.79987C14.9333 1.19987 14.2667 1.46654 13.5333 1.59987C12.9333 0.933203 12.0667 0.533203 11.1333 0.533203C9.33333 0.533203 7.86667 1.99987 7.86667 3.79987C7.86667 4.06654 7.86667 4.3332 7.93333 4.5332C5.13333 4.39987 2.73333 3.06654 1.13333 1.06654C0.8 1.59987 0.666667 2.1332 0.666667 2.7332C0.666667 3.86654 1.26667 4.86654 2.13333 5.46654C1.6 5.46654 1.06667 5.3332 0.666667 5.06654C0.666667 5.06654 0.666667 5.06654 0.666667 5.1332C0.666667 6.7332 1.8 8.06654 3.26667 8.3332C3 8.39987 2.73333 8.46654 2.4 8.46654C2.2 8.46654 2 8.46654 1.8 8.39987C2.2 9.7332 3.4 10.6665 4.86667 10.6665C3.73333 11.5332 2.33333 12.0665 0.8 12.0665C0.533333 12.0665 0.266667 12.0665 0 11.9999C1.46667 12.9332 3.2 13.4665 5 13.4665C11.0667 13.4665 14.3333 8.46654 14.3333 4.1332C14.3333 3.99987 14.3333 3.86654 14.3333 3.7332C15 3.26654 15.5333 2.66654 16 2.06654Z" fill="#71717A"/>
</svg>
