<svg width="16" height="16" viewBox="0 0 16 16" fill="none" xmlns="http://www.w3.org/2000/svg">
<g clip-path="url(#clip0_1033_1622)">
<path fill-rule="evenodd" clip-rule="evenodd" d="M8.00006 16C3.58178 16 6.10352e-05 12.4183 6.10352e-05 8C6.10352e-05 3.58172 3.58178 0 8.00006 0C12.4183 0 16.0001 3.58172 16.0001 8C16.0001 12.4183 12.4183 16 8.00006 16ZM1.64958 8.8C1.934 11.0809 3.41862 12.989 5.45151 13.8725C4.6972 12.5267 4.15004 10.6894 4.02646 8.8H1.64958ZM1.64958 7.2H4.02583C4.1467 5.30845 4.68317 3.47855 5.43017 2.13687C3.40824 3.02438 1.933 4.92713 1.64958 7.2ZM14.3505 7.2C14.0671 4.92713 12.5919 3.02438 10.5699 2.13687C11.317 3.47855 11.8534 5.30845 11.9743 7.2H14.3505ZM10.5486 13.8725C12.5815 12.989 14.0661 11.0809 14.3505 8.8H11.9737C11.8501 10.6894 11.3029 12.5267 10.5486 13.8725ZM6.6607 12.7349C7.17993 13.7787 7.78863 14.4 8.00006 14.4C8.21149 14.4 8.82019 13.7787 9.33942 12.7349C9.89533 11.6173 10.2687 10.2385 10.3714 8.8H5.62873C5.73144 10.2385 6.10479 11.6173 6.6607 12.7349ZM6.64678 3.26292C6.09752 4.37572 5.72916 5.75619 5.62814 7.2H10.372C10.271 5.75619 9.90261 4.37572 9.35334 3.26292C8.83599 2.21476 8.23052 1.6 8.00006 1.6C7.7696 1.6 7.16413 2.21476 6.64678 3.26292Z" fill="#71717A"/>
</g>
<defs>
<clipPath id="clip0_1033_1622">
<rect width="16" height="16" fill="white"/>
</clipPath>
</defs>
</svg>
